<svg xmlns="http://www.w3.org/2000/svg" xmlns:xlink="http://www.w3.org/1999/xlink" width="39" height="44" viewBox="0 0 39 44">
  <defs>
    <filter id="Path_1" x="0" y="0" width="39" height="44" filterUnits="userSpaceOnUse">
      <feOffset dy="3" input="SourceAlpha"/>
      <feGaussianBlur stdDeviation="1.5" result="blur"/>
      <feFlood flood-color="#033f63" flood-opacity="0.161"/>
      <feComposite operator="in" in2="blur"/>
      <feComposite in="SourceGraphic"/>
    </filter>
  </defs>
  <g transform="matrix(1, 0, 0, 1, 0, 0)" filter="url(#Path_1)">
    <path id="Path_1-2" data-name="Path 1" d="M18,32.667A11.667,11.667,0,1,1,29.667,21,11.667,11.667,0,0,1,18,32.667M29.717,11.65l2.367-2.367a24.06,24.06,0,0,0-2.35-2.35l-2.367,2.4A14.772,14.772,0,0,0,18,6a15.025,15.025,0,1,0,11.717,5.65M16.333,22.667h3.333v-10H16.333M23,1H13V4.333H23Z" transform="translate(1.5 0.5)" fill="#033f63"/>
  </g>
</svg>
